<mxfile host="app.diagrams.net" modified="2023-04-10T13:47:17.300Z" agent="Mozilla/5.0 (Macintosh; Intel Mac OS X 10_15_7) AppleWebKit/537.36 (KHTML, like Gecko) Chrome/112.0.0.0 Safari/537.36" etag="AS30nJxJkd2uvbTFELsZ" version="21.1.5" type="device">
  <diagram name="Page-1" id="2YBvvXClWsGukQMizWep">
    <mxGraphModel dx="235" dy="132" grid="1" gridSize="10" guides="1" tooltips="1" connect="1" arrows="1" fold="1" page="1" pageScale="1" pageWidth="850" pageHeight="1100" math="0" shadow="0">
      <root>
        <mxCell id="0" />
        <mxCell id="1" parent="0" />
        <mxCell id="aM9ryv3xv72pqoxQDRHE-1" value=":UI" style="shape=umlLifeline;perimeter=lifelinePerimeter;whiteSpace=wrap;html=1;container=0;dropTarget=0;collapsible=0;recursiveResize=0;outlineConnect=0;portConstraint=eastwest;newEdgeStyle={&quot;edgeStyle&quot;:&quot;elbowEdgeStyle&quot;,&quot;elbow&quot;:&quot;vertical&quot;,&quot;curved&quot;:0,&quot;rounded&quot;:0};" parent="1" vertex="1">
          <mxGeometry x="230" y="40" width="100" height="520" as="geometry" />
        </mxCell>
        <mxCell id="aM9ryv3xv72pqoxQDRHE-2" value="" style="html=1;points=[];perimeter=orthogonalPerimeter;outlineConnect=0;targetShapes=umlLifeline;portConstraint=eastwest;newEdgeStyle={&quot;edgeStyle&quot;:&quot;elbowEdgeStyle&quot;,&quot;elbow&quot;:&quot;vertical&quot;,&quot;curved&quot;:0,&quot;rounded&quot;:0};" parent="aM9ryv3xv72pqoxQDRHE-1" vertex="1">
          <mxGeometry x="45" y="80" width="10" height="50" as="geometry" />
        </mxCell>
        <mxCell id="hMPF1phHnx8YN94nT98c-94" value="" style="html=1;points=[];perimeter=orthogonalPerimeter;outlineConnect=0;targetShapes=umlLifeline;portConstraint=eastwest;newEdgeStyle={&quot;edgeStyle&quot;:&quot;elbowEdgeStyle&quot;,&quot;elbow&quot;:&quot;vertical&quot;,&quot;curved&quot;:0,&quot;rounded&quot;:0};" parent="aM9ryv3xv72pqoxQDRHE-1" vertex="1">
          <mxGeometry x="45" y="440" width="10" height="20" as="geometry" />
        </mxCell>
        <mxCell id="aM9ryv3xv72pqoxQDRHE-5" value="&amp;lt;&amp;lt;class&amp;gt;&amp;gt;&lt;br&gt;Parser" style="shape=umlLifeline;perimeter=lifelinePerimeter;whiteSpace=wrap;html=1;container=0;dropTarget=0;collapsible=0;recursiveResize=0;outlineConnect=0;portConstraint=eastwest;newEdgeStyle={&quot;edgeStyle&quot;:&quot;elbowEdgeStyle&quot;,&quot;elbow&quot;:&quot;vertical&quot;,&quot;curved&quot;:0,&quot;rounded&quot;:0};" parent="1" vertex="1">
          <mxGeometry x="375" y="40" width="100" height="520" as="geometry" />
        </mxCell>
        <mxCell id="aM9ryv3xv72pqoxQDRHE-6" value="" style="html=1;points=[];perimeter=orthogonalPerimeter;outlineConnect=0;targetShapes=umlLifeline;portConstraint=eastwest;newEdgeStyle={&quot;edgeStyle&quot;:&quot;elbowEdgeStyle&quot;,&quot;elbow&quot;:&quot;vertical&quot;,&quot;curved&quot;:0,&quot;rounded&quot;:0};" parent="aM9ryv3xv72pqoxQDRHE-5" vertex="1">
          <mxGeometry x="45" y="160" width="10" height="70" as="geometry" />
        </mxCell>
        <mxCell id="aM9ryv3xv72pqoxQDRHE-8" value="" style="html=1;verticalAlign=bottom;endArrow=open;dashed=1;endSize=8;edgeStyle=elbowEdgeStyle;elbow=vertical;curved=0;rounded=0;" parent="1" source="aM9ryv3xv72pqoxQDRHE-6" target="hMPF1phHnx8YN94nT98c-72" edge="1">
          <mxGeometry relative="1" as="geometry">
            <mxPoint x="280" y="140" as="targetPoint" />
            <Array as="points">
              <mxPoint x="415" y="270" />
              <mxPoint x="345" y="240" />
              <mxPoint x="415" y="210" />
              <mxPoint x="380" y="280" />
            </Array>
          </mxGeometry>
        </mxCell>
        <mxCell id="hMPF1phHnx8YN94nT98c-1" value="parseInput(&quot;create-account SGD&quot;)" style="endArrow=classic;html=1;rounded=0;" parent="1" edge="1">
          <mxGeometry x="0.0588" y="10" width="50" height="50" relative="1" as="geometry">
            <mxPoint x="160" y="200" as="sourcePoint" />
            <mxPoint x="420" y="200" as="targetPoint" />
            <Array as="points">
              <mxPoint x="405" y="200" />
            </Array>
            <mxPoint as="offset" />
          </mxGeometry>
        </mxCell>
        <mxCell id="hMPF1phHnx8YN94nT98c-4" value="&lt;font style=&quot;font-size: 10px;&quot;&gt;:&amp;nbsp;CreateAccountCommand&lt;/font&gt;" style="shape=umlLifeline;perimeter=lifelinePerimeter;whiteSpace=wrap;html=1;container=1;dropTarget=0;collapsible=0;recursiveResize=0;outlineConnect=0;portConstraint=eastwest;newEdgeStyle={&quot;edgeStyle&quot;:&quot;elbowEdgeStyle&quot;,&quot;elbow&quot;:&quot;vertical&quot;,&quot;curved&quot;:0,&quot;rounded&quot;:0};" parent="1" vertex="1">
          <mxGeometry x="646" y="190" width="130" height="370" as="geometry" />
        </mxCell>
        <mxCell id="hMPF1phHnx8YN94nT98c-6" value="" style="html=1;points=[];perimeter=orthogonalPerimeter;outlineConnect=0;targetShapes=umlLifeline;portConstraint=eastwest;newEdgeStyle={&quot;edgeStyle&quot;:&quot;elbowEdgeStyle&quot;,&quot;elbow&quot;:&quot;vertical&quot;,&quot;curved&quot;:0,&quot;rounded&quot;:0};" parent="hMPF1phHnx8YN94nT98c-4" vertex="1">
          <mxGeometry x="60" y="40" width="10" height="20" as="geometry" />
        </mxCell>
        <mxCell id="hMPF1phHnx8YN94nT98c-78" value="" style="html=1;points=[];perimeter=orthogonalPerimeter;outlineConnect=0;targetShapes=umlLifeline;portConstraint=eastwest;newEdgeStyle={&quot;edgeStyle&quot;:&quot;elbowEdgeStyle&quot;,&quot;elbow&quot;:&quot;vertical&quot;,&quot;curved&quot;:0,&quot;rounded&quot;:0};" parent="hMPF1phHnx8YN94nT98c-4" vertex="1">
          <mxGeometry x="60" y="100" width="10" height="230" as="geometry" />
        </mxCell>
        <mxCell id="hMPF1phHnx8YN94nT98c-5" value="&lt;font style=&quot;font-size: 10px;&quot;&gt;CreateAccountCommand(&quot;create-account SGD&quot;)&lt;/font&gt;" style="html=1;verticalAlign=bottom;endArrow=block;edgeStyle=elbowEdgeStyle;elbow=vertical;curved=0;rounded=0;" parent="1" source="aM9ryv3xv72pqoxQDRHE-6" edge="1">
          <mxGeometry x="0.0233" y="20" width="80" relative="1" as="geometry">
            <mxPoint x="445" y="360" as="sourcePoint" />
            <mxPoint x="645" y="210" as="targetPoint" />
            <mxPoint as="offset" />
          </mxGeometry>
        </mxCell>
        <mxCell id="hMPF1phHnx8YN94nT98c-7" value="" style="html=1;verticalAlign=bottom;endArrow=open;dashed=1;endSize=8;edgeStyle=elbowEdgeStyle;elbow=vertical;curved=0;rounded=0;" parent="1" target="aM9ryv3xv72pqoxQDRHE-6" edge="1">
          <mxGeometry x="0.0043" relative="1" as="geometry">
            <mxPoint x="700" y="250" as="sourcePoint" />
            <mxPoint x="465" y="250" as="targetPoint" />
            <mxPoint as="offset" />
          </mxGeometry>
        </mxCell>
        <mxCell id="hMPF1phHnx8YN94nT98c-69" value="&amp;lt;&amp;lt;class&amp;gt;&amp;gt;&lt;br&gt;MoneyMoover" style="shape=umlLifeline;perimeter=lifelinePerimeter;whiteSpace=wrap;html=1;container=1;dropTarget=0;collapsible=0;recursiveResize=0;outlineConnect=0;portConstraint=eastwest;newEdgeStyle={&quot;edgeStyle&quot;:&quot;elbowEdgeStyle&quot;,&quot;elbow&quot;:&quot;vertical&quot;,&quot;curved&quot;:0,&quot;rounded&quot;:0};" parent="1" vertex="1">
          <mxGeometry x="105" y="40" width="100" height="520" as="geometry" />
        </mxCell>
        <mxCell id="hMPF1phHnx8YN94nT98c-72" value="" style="html=1;points=[];perimeter=orthogonalPerimeter;outlineConnect=0;targetShapes=umlLifeline;portConstraint=eastwest;newEdgeStyle={&quot;edgeStyle&quot;:&quot;elbowEdgeStyle&quot;,&quot;elbow&quot;:&quot;vertical&quot;,&quot;curved&quot;:0,&quot;rounded&quot;:0};" parent="hMPF1phHnx8YN94nT98c-69" vertex="1">
          <mxGeometry x="45" y="70" width="10" height="420" as="geometry" />
        </mxCell>
        <mxCell id="hMPF1phHnx8YN94nT98c-71" value="" style="shape=umlLifeline;perimeter=lifelinePerimeter;whiteSpace=wrap;html=1;container=1;dropTarget=0;collapsible=0;recursiveResize=0;outlineConnect=0;portConstraint=eastwest;newEdgeStyle={&quot;edgeStyle&quot;:&quot;elbowEdgeStyle&quot;,&quot;elbow&quot;:&quot;vertical&quot;,&quot;curved&quot;:0,&quot;rounded&quot;:0};participant=umlActor;" parent="1" vertex="1">
          <mxGeometry x="20" y="40" width="20" height="520" as="geometry" />
        </mxCell>
        <mxCell id="aM9ryv3xv72pqoxQDRHE-3" value="&quot;create-account SGD&quot;" style="html=1;verticalAlign=bottom;startArrow=none;endArrow=block;startSize=8;edgeStyle=elbowEdgeStyle;elbow=vertical;curved=0;rounded=0;startFill=0;" parent="1" source="hMPF1phHnx8YN94nT98c-71" target="aM9ryv3xv72pqoxQDRHE-2" edge="1">
          <mxGeometry x="-0.5071" relative="1" as="geometry">
            <mxPoint x="130" y="110" as="sourcePoint" />
            <Array as="points">
              <mxPoint x="200" y="140" />
              <mxPoint x="180" y="160" />
            </Array>
            <mxPoint as="offset" />
          </mxGeometry>
        </mxCell>
        <mxCell id="hMPF1phHnx8YN94nT98c-73" value="getUserInput()" style="edgeStyle=elbowEdgeStyle;rounded=0;orthogonalLoop=1;jettySize=auto;html=1;elbow=vertical;curved=0;" parent="1" source="hMPF1phHnx8YN94nT98c-72" target="aM9ryv3xv72pqoxQDRHE-2" edge="1">
          <mxGeometry x="-0.0435" y="10" relative="1" as="geometry">
            <Array as="points">
              <mxPoint x="245" y="120" />
            </Array>
            <mxPoint as="offset" />
          </mxGeometry>
        </mxCell>
        <mxCell id="hMPF1phHnx8YN94nT98c-76" value="return" style="html=1;verticalAlign=bottom;endArrow=open;dashed=1;endSize=8;edgeStyle=elbowEdgeStyle;elbow=vertical;curved=0;rounded=0;" parent="1" source="aM9ryv3xv72pqoxQDRHE-2" edge="1">
          <mxGeometry relative="1" as="geometry">
            <mxPoint x="595" y="290" as="sourcePoint" />
            <mxPoint x="160" y="170" as="targetPoint" />
            <Array as="points">
              <mxPoint x="265" y="170" />
            </Array>
          </mxGeometry>
        </mxCell>
        <mxCell id="hMPF1phHnx8YN94nT98c-77" value="execute()" style="html=1;verticalAlign=bottom;endArrow=block;edgeStyle=elbowEdgeStyle;elbow=vertical;curved=0;rounded=0;" parent="1" source="hMPF1phHnx8YN94nT98c-72" target="hMPF1phHnx8YN94nT98c-78" edge="1">
          <mxGeometry x="0.1887" width="80" relative="1" as="geometry">
            <mxPoint x="515" y="290" as="sourcePoint" />
            <mxPoint x="595" y="290" as="targetPoint" />
            <Array as="points">
              <mxPoint x="675" y="290" />
            </Array>
            <mxPoint as="offset" />
          </mxGeometry>
        </mxCell>
        <mxCell id="hMPF1phHnx8YN94nT98c-79" value=":AccountList" style="shape=umlLifeline;perimeter=lifelinePerimeter;whiteSpace=wrap;html=1;container=1;dropTarget=0;collapsible=0;recursiveResize=0;outlineConnect=0;portConstraint=eastwest;newEdgeStyle={&quot;edgeStyle&quot;:&quot;elbowEdgeStyle&quot;,&quot;elbow&quot;:&quot;vertical&quot;,&quot;curved&quot;:0,&quot;rounded&quot;:0};" parent="1" vertex="1">
          <mxGeometry x="800" y="40" width="100" height="520" as="geometry" />
        </mxCell>
        <mxCell id="hMPF1phHnx8YN94nT98c-81" value="" style="html=1;points=[];perimeter=orthogonalPerimeter;outlineConnect=0;targetShapes=umlLifeline;portConstraint=eastwest;newEdgeStyle={&quot;edgeStyle&quot;:&quot;elbowEdgeStyle&quot;,&quot;elbow&quot;:&quot;vertical&quot;,&quot;curved&quot;:0,&quot;rounded&quot;:0};" parent="hMPF1phHnx8YN94nT98c-79" vertex="1">
          <mxGeometry x="45" y="320" width="10" height="120" as="geometry" />
        </mxCell>
        <mxCell id="hMPF1phHnx8YN94nT98c-80" value="addAccount(SGD)" style="html=1;verticalAlign=bottom;endArrow=block;edgeStyle=elbowEdgeStyle;elbow=vertical;curved=0;rounded=0;" parent="1" source="hMPF1phHnx8YN94nT98c-78" target="hMPF1phHnx8YN94nT98c-81" edge="1">
          <mxGeometry width="80" relative="1" as="geometry">
            <mxPoint x="510" y="380" as="sourcePoint" />
            <mxPoint x="590" y="380" as="targetPoint" />
            <Array as="points">
              <mxPoint x="760" y="360" />
            </Array>
          </mxGeometry>
        </mxCell>
        <mxCell id="hMPF1phHnx8YN94nT98c-82" value=":Storage" style="shape=umlLifeline;perimeter=lifelinePerimeter;whiteSpace=wrap;html=1;container=1;dropTarget=0;collapsible=0;recursiveResize=0;outlineConnect=0;portConstraint=eastwest;newEdgeStyle={&quot;edgeStyle&quot;:&quot;elbowEdgeStyle&quot;,&quot;elbow&quot;:&quot;vertical&quot;,&quot;curved&quot;:0,&quot;rounded&quot;:0};" parent="1" vertex="1">
          <mxGeometry x="910" y="40" width="100" height="520" as="geometry" />
        </mxCell>
        <mxCell id="hMPF1phHnx8YN94nT98c-83" value="" style="html=1;points=[];perimeter=orthogonalPerimeter;outlineConnect=0;targetShapes=umlLifeline;portConstraint=eastwest;newEdgeStyle={&quot;edgeStyle&quot;:&quot;elbowEdgeStyle&quot;,&quot;elbow&quot;:&quot;vertical&quot;,&quot;curved&quot;:0,&quot;rounded&quot;:0};" parent="hMPF1phHnx8YN94nT98c-82" vertex="1">
          <mxGeometry x="45" y="350" width="10" height="70" as="geometry" />
        </mxCell>
        <mxCell id="hMPF1phHnx8YN94nT98c-87" value="" style="html=1;points=[];perimeter=orthogonalPerimeter;outlineConnect=0;targetShapes=umlLifeline;portConstraint=eastwest;newEdgeStyle={&quot;edgeStyle&quot;:&quot;elbowEdgeStyle&quot;,&quot;elbow&quot;:&quot;vertical&quot;,&quot;curved&quot;:0,&quot;rounded&quot;:0};" parent="hMPF1phHnx8YN94nT98c-82" vertex="1">
          <mxGeometry x="51" y="370" width="10" height="20" as="geometry" />
        </mxCell>
        <mxCell id="hMPF1phHnx8YN94nT98c-88" value="save to file" style="html=1;align=left;spacingLeft=2;endArrow=block;rounded=0;edgeStyle=orthogonalEdgeStyle;curved=0;rounded=0;" parent="hMPF1phHnx8YN94nT98c-82" source="hMPF1phHnx8YN94nT98c-83" target="hMPF1phHnx8YN94nT98c-87" edge="1">
          <mxGeometry relative="1" as="geometry">
            <mxPoint x="60" y="340" as="sourcePoint" />
            <Array as="points">
              <mxPoint x="90" y="360" />
              <mxPoint x="90" y="370" />
            </Array>
          </mxGeometry>
        </mxCell>
        <mxCell id="hMPF1phHnx8YN94nT98c-85" value="save" style="html=1;verticalAlign=bottom;endArrow=block;edgeStyle=elbowEdgeStyle;elbow=horizontal;curved=0;rounded=0;" parent="1" edge="1">
          <mxGeometry width="80" relative="1" as="geometry">
            <mxPoint x="860" y="390" as="sourcePoint" />
            <mxPoint x="960" y="390" as="targetPoint" />
            <mxPoint as="offset" />
          </mxGeometry>
        </mxCell>
        <mxCell id="hMPF1phHnx8YN94nT98c-91" value="" style="html=1;verticalAlign=bottom;endArrow=open;dashed=1;endSize=8;edgeStyle=elbowEdgeStyle;elbow=vertical;curved=0;rounded=0;" parent="1" source="hMPF1phHnx8YN94nT98c-83" target="hMPF1phHnx8YN94nT98c-81" edge="1">
          <mxGeometry relative="1" as="geometry">
            <mxPoint x="750" y="310" as="sourcePoint" />
            <mxPoint x="670" y="310" as="targetPoint" />
            <Array as="points">
              <mxPoint x="920" y="460" />
            </Array>
          </mxGeometry>
        </mxCell>
        <mxCell id="hMPF1phHnx8YN94nT98c-92" value="" style="html=1;verticalAlign=bottom;endArrow=open;dashed=1;endSize=8;edgeStyle=elbowEdgeStyle;elbow=vertical;curved=0;rounded=0;" parent="1" source="hMPF1phHnx8YN94nT98c-81" target="hMPF1phHnx8YN94nT98c-78" edge="1">
          <mxGeometry relative="1" as="geometry">
            <mxPoint x="750" y="310" as="sourcePoint" />
            <mxPoint x="670" y="310" as="targetPoint" />
            <Array as="points">
              <mxPoint x="781" y="480" />
            </Array>
          </mxGeometry>
        </mxCell>
        <mxCell id="hMPF1phHnx8YN94nT98c-95" value="printMessage()" style="html=1;verticalAlign=bottom;endArrow=block;edgeStyle=elbowEdgeStyle;elbow=vertical;curved=0;rounded=0;" parent="1" source="hMPF1phHnx8YN94nT98c-78" edge="1">
          <mxGeometry width="80" relative="1" as="geometry">
            <mxPoint x="710.5" y="482" as="sourcePoint" />
            <mxPoint x="285" y="482" as="targetPoint" />
            <Array as="points">
              <mxPoint x="466" y="482" />
            </Array>
          </mxGeometry>
        </mxCell>
        <mxCell id="hMPF1phHnx8YN94nT98c-96" value="&lt;font style=&quot;font-size: 9px;&quot;&gt;&quot;You have successfully added the SGD account&quot;&lt;/font&gt;" style="html=1;verticalAlign=bottom;endArrow=block;edgeStyle=elbowEdgeStyle;elbow=vertical;curved=0;rounded=0;" parent="1" source="hMPF1phHnx8YN94nT98c-94" target="hMPF1phHnx8YN94nT98c-71" edge="1">
          <mxGeometry x="0.0193" y="-5" width="80" relative="1" as="geometry">
            <mxPoint x="370" y="340" as="sourcePoint" />
            <mxPoint x="450" y="340" as="targetPoint" />
            <Array as="points">
              <mxPoint x="220" y="490" />
            </Array>
            <mxPoint as="offset" />
          </mxGeometry>
        </mxCell>
        <mxCell id="hMPF1phHnx8YN94nT98c-97" value="" style="html=1;verticalAlign=bottom;endArrow=open;dashed=1;endSize=8;edgeStyle=elbowEdgeStyle;elbow=vertical;curved=0;rounded=0;" parent="1" source="hMPF1phHnx8YN94nT98c-78" target="hMPF1phHnx8YN94nT98c-72" edge="1">
          <mxGeometry x="-0.2088" relative="1" as="geometry">
            <mxPoint x="450" y="340" as="sourcePoint" />
            <mxPoint x="160" y="520" as="targetPoint" />
            <Array as="points">
              <mxPoint x="460" y="520" />
            </Array>
            <mxPoint as="offset" />
          </mxGeometry>
        </mxCell>
        <mxCell id="hMPF1phHnx8YN94nT98c-98" value="User" style="text;html=1;align=center;verticalAlign=middle;resizable=0;points=[];autosize=1;strokeColor=none;fillColor=none;" parent="1" vertex="1">
          <mxGeometry x="5" y="15" width="50" height="30" as="geometry" />
        </mxCell>
        <mxCell id="E9pio6plKkN6mG6r3gNl-8" value="" style="endArrow=none;dashed=1;html=1;strokeWidth=1;rounded=0;" parent="1" edge="1">
          <mxGeometry width="50" height="50" relative="1" as="geometry">
            <mxPoint x="971" y="428.9999999999999" as="sourcePoint" />
            <mxPoint x="1000" y="430" as="targetPoint" />
          </mxGeometry>
        </mxCell>
        <mxCell id="E9pio6plKkN6mG6r3gNl-10" value="" style="endArrow=none;dashed=1;html=1;strokeWidth=1;rounded=0;startArrow=open;startFill=0;" parent="1" source="hMPF1phHnx8YN94nT98c-83" edge="1">
          <mxGeometry width="50" height="50" relative="1" as="geometry">
            <mxPoint x="970" y="450" as="sourcePoint" />
            <mxPoint x="1000" y="430" as="targetPoint" />
            <Array as="points">
              <mxPoint x="1000" y="450" />
            </Array>
          </mxGeometry>
        </mxCell>
      </root>
    </mxGraphModel>
  </diagram>
</mxfile>
